<svg xmlns="http://www.w3.org/2000/svg" viewBox="0 0 496 512">
  <circle cx="248" cy="256" r="248" fill="#1DB954"/>
  <path fill="#fff" d="M361.3 340c-5.2 0-8.5-1.7-12.9-4.3-37.9-23.3-84.5-28.4-140.3-15.6-5.2 1.2-10.5 4.3-10.5 11.7 0 7 5.2 12.9 12.9 12.9 1.7 0 4.3-.6 6.4-1.2 49.2-11.1 90.4-6.4 124.3 14 3.5 1.9 6.4 3.5 10.5 3.5 7 0 12.9-5.8 12.9-12.9-.1-5.7-3.1-9.1-3.3-8.1zM385.5 282c-6.4 0-10.5-2.3-15.2-5.2-44-26.7-110.8-35.8-162.9-19.6-6.4 2-11.1 5.8-11.1 13.5 0 8.1 6.4 14.6 14.6 14.6 2.9 0 5.2-.6 7.6-1.4 44.7-13.7 105.2-5.4 143.6 17.5 4.1 2.6 7.6 4.1 12.3 4.1 8.1 0 14.6-6.4 14.6-14.6 0-7-5.2-10.7-3.5-8.9zM412 220c-5.8 0-9.3-1.7-14-4.7C348.7 182.7 260 175.6 196 193c-7.6 2-13.5 7-13.5 16.3 0 9.3 7 16.3 16.3 16.3 2.9 0 6.4-.9 9.3-1.7 56.3-14 139.5-7 192 27.2 4.1 2.6 7.6 4.1 13.5 4.1 9.3 0 16.3-7 16.3-16.3 0-8.1-4.4-12.6-7.9-18.9z"/>
</svg>
