<svg xmlns="http://www.w3.org/2000/svg" viewBox="0 0 512 512">
  <!-- Cloud shape -->
  <path fill="#F55200" d="M399.9 185.5c-.8-61.5-51.2-110.9-113-110.9-42.8 0-80.1 23.8-99.9 58.9-8.7-4.5-18.6-7-29.2-7-35.3 0-63.9 28.7-63.9 64 0 1.5.1 3 .2 4.5C70.6 205.2 48 231.8 48 264c0 36.2 29.4 65.6 65.6 65.6h271.7c39.9 0 72.2-32.3 72.2-72.2-.1-35.3-25.3-64.9-57.6-71.9z"/>
  <!-- Waveform bars -->
  <rect fill="#fff" x="128" y="232" width="16" height="48" rx="4"/>
  <rect fill="#fff" x="155" y="216" width="16" height="80" rx="4"/>
  <rect fill="#fff" x="182" y="200" width="16" height="112" rx="4"/>
  <rect fill="#fff" x="209" y="224" width="16" height="64" rx="4"/>
  <rect fill="#fff" x="236" y="212" width="16" height="88" rx="4"/>
  <rect fill="#fff" x="263" y="228" width="16" height="56" rx="4"/>
  <rect fill="#fff" x="290" y="220" width="16" height="72" rx="4"/>
  <rect fill="#fff" x="317" y="236" width="16" height="40" rx="4"/>
</svg>
